<svg width="44" height="48" viewBox="0 0 44 48" fill="none" xmlns="http://www.w3.org/2000/svg">
<path d="M9.36401 14.4688H12.1757V17.2804H9.36401V14.4688Z" fill="#5A73EF"/>
<path d="M9.36401 25.7158H12.1757V28.5275H9.36401V25.7158Z" fill="#5A73EF"/>
<path d="M34.2258 27.483C35.2633 27.483 36.2699 27.6189 37.2277 27.8748V4.21736C37.2277 3.44134 36.5979 2.81152 35.8219 2.81152H31.5997C31.5997 6.47139 28.6221 9.44895 24.9622 9.44895H13.1944C11.365 9.44895 9.70513 8.7048 8.50361 7.50234C7.30115 6.30081 6.55699 4.64099 6.55699 2.81152H2.33479C1.55877 2.81152 0.928955 3.44134 0.928955 4.21736V39.5508H22.577C22.3108 33.0689 27.5733 27.483 34.2258 27.483ZM27.2322 11.6571H29.2613C30.0373 11.6571 30.6671 12.2869 30.6671 13.0629C30.6671 13.8389 30.0373 14.4687 29.2613 14.4687H27.2322C26.4562 14.4687 25.8263 13.8389 25.8263 13.0629C25.8263 12.2869 26.4562 11.6571 27.2322 11.6571ZM19.2049 11.6571H22.1712C22.9472 11.6571 23.577 12.2869 23.577 13.0629C23.577 13.8389 22.9472 14.4687 22.1712 14.4687H19.2049C18.4288 14.4687 17.799 13.8389 17.799 13.0629C17.799 12.2869 18.4288 11.6571 19.2049 11.6571ZM19.2049 17.2804H29.2613C30.0373 17.2804 30.6671 17.9102 30.6671 18.6862C30.6671 19.4632 30.0373 20.0921 29.2613 20.0921H19.2049C18.4288 20.0921 17.799 19.4632 17.799 18.6862C17.799 17.9102 18.4288 17.2804 19.2049 17.2804ZM14.9873 29.933C14.9873 30.7099 14.3575 31.3388 13.5815 31.3388H7.95815C7.18212 31.3388 6.55231 30.7099 6.55231 29.933V24.3096C6.55231 23.5336 7.18212 22.9038 7.95815 22.9038H13.5815C14.3575 22.9038 14.9873 23.5336 14.9873 24.3096V29.933ZM14.9873 18.6862C14.9873 19.4632 14.3575 20.0921 13.5815 20.0921H7.95815C7.18212 20.0921 6.55231 19.4632 6.55231 18.6862V13.0629C6.55231 12.2869 7.18212 11.6571 7.95815 11.6571H13.5815C14.3575 11.6571 14.9873 12.2869 14.9873 13.0629V18.6862ZM17.799 24.4614C17.799 23.6854 18.4288 23.0556 19.2049 23.0556H29.2613C30.0373 23.0556 30.6671 23.6854 30.6671 24.4614C30.6671 25.2375 30.0373 25.8673 29.2613 25.8673H19.2049C18.4288 25.8673 17.799 25.2375 17.799 24.4614Z" fill="#5A73EF"/>
<path d="M13.1944 6.63743H24.9622C27.0719 6.63743 28.788 4.92137 28.788 2.81168V1.40584C28.788 0.629815 28.1591 0 27.3821 0H10.7745C9.99753 0 9.36865 0.629815 9.36865 1.40584V2.81168C9.36865 4.92137 11.0847 6.63743 13.1944 6.63743Z" fill="#5A73EF"/>
<path d="M34.2259 30.2949C29.3486 30.2949 25.3804 34.2631 25.3804 39.1405C25.3804 44.03 29.3439 47.986 34.2259 47.986C39.2044 47.986 43.0714 43.9119 43.0714 39.1405C43.0714 34.3681 39.2035 30.2949 34.2259 30.2949ZM38.7424 37.9633L34.3993 42.3064C33.8501 42.8556 32.9588 42.8537 32.4114 42.3064L29.7104 39.6044C29.1611 39.0561 29.1611 38.1657 29.7104 37.6165C30.2586 37.0673 31.149 37.0673 31.6982 37.6165L33.4058 39.3242L36.7536 35.9754C37.3028 35.4262 38.1932 35.4262 38.7424 35.9754C39.2916 36.5247 39.2916 37.4141 38.7424 37.9633Z" fill="#5A73EF"/>
<path d="M26.6492 47.9997C22.2302 47.9988 14.8196 47.9857 2.33479 47.9857C1.55877 47.9857 0.928955 47.3558 0.928955 46.5798V42.3623H23.0175C23.6531 44.5875 24.944 46.5462 26.6492 47.9997Z" fill="#5A73EF"/>
</svg>
